<svg width="400" height="400" viewBox="0 0 400 400" fill="none" xmlns="http://www.w3.org/2000/svg">
<rect x="47" y="47" width="306" height="306" rx="44" stroke="black" stroke-width="12"/>
<rect x="159" y="174" width="38" height="140" rx="11" stroke="black" stroke-width="10"/>
<path d="M178 279V293" stroke="black" stroke-width="8" stroke-linecap="round"/>
<rect x="199" y="174" width="38" height="140" rx="11" stroke="black" stroke-width="10"/>
<path d="M218 279V293" stroke="black" stroke-width="8" stroke-linecap="round"/>
<rect x="239" y="174" width="38" height="140" rx="11" stroke="black" stroke-width="10"/>
<path d="M258 279V293" stroke="black" stroke-width="8" stroke-linecap="round"/>
<rect x="279" y="174" width="38" height="140" rx="11" stroke="black" stroke-width="10"/>
<path d="M298 279V293" stroke="black" stroke-width="8" stroke-linecap="round"/>
<path d="M103.451 210.509C103.696 210.515 103.94 210.47 104.167 210.378C104.394 210.286 104.599 210.149 104.771 209.974C104.944 209.807 105.08 209.606 105.172 209.385C105.264 209.163 105.31 208.924 105.307 208.684V195.064C105.309 194.822 105.264 194.581 105.172 194.357C105.08 194.133 104.944 193.929 104.771 193.759C104.602 193.58 104.397 193.439 104.169 193.344C103.942 193.25 103.697 193.203 103.451 193.208C103.209 193.205 102.969 193.252 102.747 193.347C102.524 193.442 102.324 193.582 102.159 193.759C101.986 193.93 101.85 194.134 101.758 194.358C101.666 194.583 101.62 194.824 101.623 195.067V208.684C101.62 208.924 101.666 209.163 101.758 209.384C101.85 209.606 101.986 209.807 102.159 209.974C102.326 210.147 102.527 210.283 102.75 210.375C102.972 210.467 103.211 210.513 103.451 210.509Z" fill="black" stroke="black" stroke-width="3"/>
<path d="M124.126 211.388C123.72 209.743 123.114 208.154 122.319 206.658C121.528 205.17 120.572 203.775 119.469 202.5C118.344 201.204 117.068 200.048 115.667 199.057C113.081 197.488 110.742 200.538 112.54 202.29C115.688 204.242 118.12 207.159 119.474 210.607C120.828 214.054 121.03 217.847 120.051 221.419C119.072 224.991 116.964 228.151 114.041 230.427C111.119 232.702 107.539 233.971 103.836 234.045C100.133 234.119 96.5052 232.993 93.4946 230.835C90.484 228.678 88.252 225.604 87.1316 222.074C86.0113 218.544 86.0627 214.746 87.2783 211.247C88.4939 207.748 90.8084 204.737 93.8763 202.661C95.8473 200.973 92.9912 197.816 90.8103 199.389C89.4871 200.396 88.2766 201.543 87.1999 202.81C86.1353 204.058 85.2228 205.429 84.4898 206.898C83.7598 208.355 83.2001 209.891 82.8016 211.507C82.4055 213.124 82.2064 214.784 82.2085 216.449C82.2085 219.4 82.7621 222.162 83.8723 224.744C84.9418 227.267 86.4914 229.558 88.4348 231.49C90.388 233.421 92.6855 234.968 95.2086 236.053C97.791 237.178 100.538 237.741 103.452 237.741C106.402 237.741 109.164 237.178 111.746 236.056C114.264 234.975 116.554 233.427 118.496 231.493C120.412 229.577 121.933 227.326 123.058 224.741C124.184 222.162 124.746 219.397 124.746 216.449C124.746 214.746 124.536 213.043 124.126 211.388Z" fill="black" stroke="black" stroke-width="3"/>
<rect x="89" y="260" width="28" height="28" rx="6" stroke="black" stroke-width="4"/>
<path d="M97 269H109" stroke="black" stroke-width="4" stroke-linecap="round"/>
<path d="M97 279H109" stroke="black" stroke-width="4" stroke-linecap="round"/>
</svg>
