<svg width="400" height="400" viewBox="0 0 400 400" fill="none" xmlns="http://www.w3.org/2000/svg">
<mask id="path-1-inside-1_5477_11626" fill="white">
<rect x="41" y="37" width="318" height="318" rx="10"/>
</mask>
<rect x="41" y="37" width="318" height="318" rx="10" stroke="black" stroke-width="24" mask="url(#path-1-inside-1_5477_11626)"/>
<rect x="158" y="169" width="40" height="142" rx="6" stroke="black" stroke-width="8"/>
<path d="M178 275V289" stroke="black" stroke-width="8" stroke-linecap="round"/>
<rect x="198" y="169" width="40" height="142" rx="6" stroke="black" stroke-width="8"/>
<path d="M218 275V289" stroke="black" stroke-width="8" stroke-linecap="round"/>
<rect x="238" y="169" width="40" height="142" rx="6" stroke="black" stroke-width="8"/>
<path d="M258 275V289" stroke="black" stroke-width="8" stroke-linecap="round"/>
<rect x="278" y="169" width="40" height="142" rx="6" stroke="black" stroke-width="8"/>
<path d="M298 275V289" stroke="black" stroke-width="8" stroke-linecap="round"/>
<path d="M103.451 206.509C103.696 206.515 103.94 206.47 104.167 206.378C104.394 206.286 104.599 206.149 104.771 205.974C104.944 205.807 105.08 205.606 105.172 205.385C105.264 205.163 105.31 204.924 105.307 204.684V191.064C105.309 190.822 105.264 190.581 105.172 190.357C105.08 190.133 104.944 189.929 104.771 189.759C104.602 189.58 104.397 189.439 104.169 189.344C103.942 189.25 103.697 189.203 103.451 189.208C103.209 189.205 102.969 189.252 102.747 189.347C102.524 189.442 102.324 189.582 102.159 189.759C101.986 189.93 101.85 190.134 101.758 190.358C101.666 190.583 101.62 190.824 101.623 191.067V204.684C101.62 204.924 101.666 205.163 101.758 205.384C101.85 205.606 101.986 205.807 102.159 205.974C102.326 206.147 102.527 206.283 102.75 206.375C102.972 206.467 103.211 206.513 103.451 206.509Z" fill="black" stroke="black" stroke-width="3"/>
<path d="M124.126 207.388C123.72 205.743 123.114 204.154 122.319 202.658C121.528 201.17 120.572 199.775 119.469 198.5C118.344 197.204 117.068 196.048 115.667 195.057C113.081 193.488 110.742 196.538 112.54 198.29C115.688 200.242 118.12 203.159 119.474 206.607C120.828 210.054 121.03 213.847 120.051 217.419C119.072 220.991 116.964 224.151 114.041 226.427C111.119 228.702 107.539 229.971 103.836 230.045C100.133 230.119 96.5052 228.993 93.4946 226.835C90.484 224.678 88.252 221.604 87.1316 218.074C86.0113 214.544 86.0627 210.746 87.2783 207.247C88.4939 203.748 90.8084 200.737 93.8763 198.661C95.8473 196.973 92.9912 193.816 90.8103 195.389C89.4871 196.396 88.2766 197.543 87.1999 198.81C86.1353 200.058 85.2228 201.429 84.4898 202.898C83.7598 204.355 83.2001 205.891 82.8016 207.507C82.4055 209.124 82.2064 210.784 82.2085 212.449C82.2085 215.4 82.7621 218.162 83.8723 220.744C84.9418 223.267 86.4914 225.558 88.4348 227.49C90.388 229.421 92.6855 230.968 95.2086 232.053C97.791 233.178 100.538 233.741 103.452 233.741C106.402 233.741 109.164 233.178 111.746 232.056C114.264 230.975 116.554 229.427 118.496 227.493C120.412 225.577 121.933 223.326 123.058 220.741C124.184 218.162 124.746 215.397 124.746 212.449C124.746 210.746 124.536 209.043 124.126 207.388Z" fill="black" stroke="black" stroke-width="3"/>
<rect x="89" y="256" width="28" height="28" rx="6" stroke="black" stroke-width="4"/>
<path d="M97 265H109" stroke="black" stroke-width="4" stroke-linecap="round"/>
<path d="M97 275H109" stroke="black" stroke-width="4" stroke-linecap="round"/>
<rect width="32" height="8" transform="translate(79 355)" fill="black"/>
<rect width="32" height="8" transform="translate(289 355)" fill="black"/>
</svg>
